/* XPM */
static char *photon_close[] = {
/* width height num_colors chars_per_pixel */
"    18    18       22            1",
/* colors */
". c #000084",
"# c #c6c3c6",
"a c #636163",
"b c #949294",
"c s None c None",
"d c #a5a2a5",
"e c #cecfce",
"f c #b5b2b5",
"g c #9c9a9c",
"h c #e7e3e7",
"i c #ffffff",
"j c #f7f3f7",
"k c #d6d3d6",
"l c #848284",
"m c #737173",
"n c #424142",
"o c #313031",
"p c #42494a",
"q c #000000",
"r c #525152",
"s c #101010",
"t c #212021",
/* pixels */
"cccccd#e#fdccccccc",
"cccchijhke#fdlcccc",
"ccgiiihke#fffdmccc",
"cgiiihke##ffggbacc",
"chiihe#ffffddgbbpc",
"giih#fffdfddgbblar",
"#ihefsqadlsqmbllmn",
"kjk#flqqpsqpbbllmo",
"kk#ffdaqqqtdbblmmo",
"#e#fddrqqqtgbllmmt",
"f##fdlqqaqqpblmmao",
"cfffgsqrdlsqalmaro",
"cdfdddgddgbblmaaon",
"cldggggbbbblmmaroc",
"cclgbbbbbllmaarooc",
"cccllblllmmaaroocc",
"cccccammmmaroooccc",
"cccccccpoooonccccc"
};
