/* XPM */
static char *win95_rarrow[] = {
"14 14 2 1",
" 	s None  c None",
".	c #000000000000",
"              ",
"              ",
"       .      ",
"       ..     ",
"       ...    ",
"       ....   ",
"       .....  ",
"       ....   ",
"       ...    ",
"       ..     ",
"       .      ",
"              ",
"              ",
"              "};
