/* XPM */
static char *win95_zoom[] = {
/* width height num_colors chars_per_pixel */
"    15    15        4            1",
/* colors */
", c None s None",
". c #000000",
"a c #acacac",
"b c #ebebeb",
/* pixels */
",,,,,,,,,,,,,,,",
"bbbbbbbbbbbbbb.",
"baaaaaaaaaaaaa.",
"baa.........aa.",
"baa.........aa.",
"baa.aaaaaaa.aa.",
"baa.aaaaaaa.aa.",
"baa.aaaaaaa.aa.",
"baa.aaaaaaa.aa.",
"baa.aaaaaaa.aa.",
"baa.aaaaaaa.aa.",
"baa.........aa.",
"baaaaaaaaaaaaa.",
"...............",
",,,,,,,,,,,,,,,"
};
