/* XPM */
static char *win95_close[] = {
/* width height num_colors chars_per_pixel */
"    15    15        4            1",
/* colors */
", c None s None",
". c #000000",
"a c #acacac",
"b c #ebebeb",
/* pixels */
",,,,,,,,,,,,,,,",
"bbbbbbbbbbbbbb.",
"baaaaaaaaaaaaa.",
"baaaaaaaaaaaaa.",
"baa..aaaaa..aa.",
"baaa..aaa..aaa.",
"baaaa..a..aaaa.",
"baaaaa...aaaaa.",
"baaaa..a..aaaa.",
"baaa..aaa..aaa.",
"baa..aaaaa..aa.",
"baaaaaaaaaaaaa.",
"baaaaaaaaaaaaa.",
"...............",
",,,,,,,,,,,,,,,"
};
