/* XPM */
static char *photon_rarrow[] = {
"14 14 2 1",
" 	s None  c None",
".	c #000000000000",
"              ",
"              ",
"     ..       ",
"     ....     ",
"     .....    ",
"     .......  ",
"     ........ ",
"     .......  ",
"     .....    ",
"     ....     ",
"     ..       ",
"              ",
"              ",
"              "};
