/* XPM */
static char *win95_unzoom[] = {
/* width height num_colors chars_per_pixel */
"    15    15        4            1",
/* colors */
", c None s None",
". c #000000",
"a c #acacac",
"b c #ebebeb",
/* pixels */
",,,,,,,,,,,,,,,",
"bbbbbbbbbbbbbb.",
"baaaaaaaaaaaaa.",
"baaaa......aaa.",
"baaaa......aaa.",
"baaaa.aaaa.aaa.",
"baa......a.aaa.",
"baa......a.aaa.",
"baa.aaaa...aaa.",
"baa.aaaa.aaaaa.",
"baa.aaaa.aaaaa.",
"baa......aaaaa.",
"baaaaaaaaaaaaa.",
"...............",
",,,,,,,,,,,,,,,"
};
